HIERARCHY
ROOT Hips
{
	OFFSET 0.00000 0.00000 0.00000
	CHANNELS 6 Xposition Yposition Zposition Zrotation Yrotation Xrotation 
	JOINT LHipJoint
	{
		OFFSET 0 0 0
		CHANNELS 3 Zrotation Yrotation Xrotation
		JOINT LeftUpLeg
		{
			OFFSET 1.62329 -1.80800 0.67318
			CHANNELS 3 Zrotation Yrotation Xrotation
			JOINT LeftLeg
			{
				OFFSET 2.57139 -7.06484 0.00000
				CHANNELS 3 Zrotation Yrotation Xrotation
				JOINT LeftFoot
				{
					OFFSET 2.52017 -6.92413 0.00000
					CHANNELS 3 Zrotation Yrotation Xrotation
					JOINT LeftToeBase
					{
						OFFSET 0.23295 -0.64001 2.10214
						CHANNELS 3 Zrotation Yrotation Xrotation
						End Site
						{
							OFFSET 0.00000 -0.00000 1.10139
						}
					}
				}
			}
		}
	}
	JOINT RHipJoint
	{
		OFFSET 0 0 0
		CHANNELS 3 Zrotation Yrotation Xrotation
		JOINT RightUpLeg
		{
			OFFSET -1.48061 -1.80800 0.67318
			CHANNELS 3 Zrotation Yrotation Xrotation
			JOINT RightLeg
			{
				OFFSET -2.63258 -7.23296 0.00000
				CHANNELS 3 Zrotation Yrotation Xrotation
				JOINT RightFoot
				{
					OFFSET -2.54779 -7.00000 0.00000
					CHANNELS 3 Zrotation Yrotation Xrotation
					JOINT RightToeBase
					{
						OFFSET -0.23067 -0.63376 2.12161
						CHANNELS 3 Zrotation Yrotation Xrotation
						End Site
						{
							OFFSET -0.00000 -0.00000 1.11000
						}
					}
				}
			}
		}
	}
	JOINT LowerBack
	{
		OFFSET 0 0 0
		CHANNELS 3 Zrotation Yrotation Xrotation
		JOINT Spine
		{
			OFFSET -0.02108 2.07573 -0.16981
			CHANNELS 3 Zrotation Yrotation Xrotation
			JOINT Spine1
			{
				OFFSET 0.05070 2.08439 -0.03141
				CHANNELS 3 Zrotation Yrotation Xrotation
				JOINT Neck
				{
					OFFSET 0 0 0
					CHANNELS 3 Zrotation Yrotation Xrotation
					JOINT Neck1
					{
						OFFSET -0.10731 1.60408 0.31370
						CHANNELS 3 Zrotation Yrotation Xrotation
						JOINT Head
						{
							OFFSET 0.08411 1.65679 -0.30822
							CHANNELS 3 Zrotation Yrotation Xrotation
							End Site
							{
								OFFSET 0.03911 1.69149 -0.14146
							}
						}
					}
				}
				JOINT LeftShoulder
				{
					OFFSET 0 0 0
					CHANNELS 3 Zrotation Yrotation Xrotation
					JOINT LeftArm
					{
						OFFSET 3.52315 0.73219 -0.54694
						CHANNELS 3 Zrotation Yrotation Xrotation
						JOINT LeftForeArm
						{
							OFFSET 5.32462 -0.00000 -0.00000
							CHANNELS 3 Zrotation Yrotation Xrotation
							JOINT LeftHand
							{
								OFFSET 3.48402 -0.00000 -0.00000
								CHANNELS 3 Zrotation Yrotation Xrotation
								JOINT LeftFingerBase
								{
									OFFSET 0 0 0
									CHANNELS 3 Zrotation Yrotation Xrotation
									JOINT LeftHandIndex1
									{
										OFFSET 0.57248 -0.00000 -0.00000
										CHANNELS 3 Zrotation Yrotation Xrotation
										End Site
										{
											OFFSET 0.46154 -0.00000 -0.00000
										}
									}
								}
								JOINT LThumb
								{
									OFFSET 0 0 0
									CHANNELS 3 Zrotation Yrotation Xrotation
									End Site
									{
										OFFSET 0.46859 -0.00000 0.46859
									}
								}
							}
						}
					}
				}
				JOINT RightShoulder
				{
					OFFSET 0 0 0
					CHANNELS 3 Zrotation Yrotation Xrotation
					JOINT RightArm
					{
						OFFSET -3.41766 0.93592 -0.10019
						CHANNELS 3 Zrotation Yrotation Xrotation
						JOINT RightForeArm
						{
							OFFSET -5.33589 -0.00000 -0.00000
							CHANNELS 3 Zrotation Yrotation Xrotation
							JOINT RightHand
							{
								OFFSET -3.64134 -0.00000 -0.00000
								CHANNELS 3 Zrotation Yrotation Xrotation
								JOINT RightFingerBase
								{
									OFFSET 0 0 0
									CHANNELS 3 Zrotation Yrotation Xrotation
									JOINT RightHandIndex1
									{
										OFFSET -0.73481 -0.00000 -0.00000
										CHANNELS 3 Zrotation Yrotation Xrotation
										End Site
										{
											OFFSET -0.59242 -0.00000 -0.00000
										}
									}
								}
								JOINT RThumb
								{
									OFFSET 0 0 0
									CHANNELS 3 Zrotation Yrotation Xrotation
									End Site
									{
										OFFSET -0.60147 -0.00000 0.60147
									}
								}
							}
						}
					}
				}
			}
		}
	}
}
MOTION
Frames: 14
Frame Time: .0083333
-0.4475 18.9638 3.4343 -11.9998 -95.6029 9.7218 0.0000 0.0000 0.0000 -24.9982 -3.6365 -0.7582 1.9860 8.8368 25.2863 0.2171 10.1242 10.2388 2.2693 -9.4058 -27.0732 0.0000 0.0000 0.0000 9.8083 8.8065 -12.3035 -5.6179 -14.0475 43.4282 -0.3787 -14.0184 13.8397 -0.8208 -5.7807 16.1493 -4.4888 -0.6919 4.5918 6.8346 -1.0559 -6.5101 10.1664 -0.0026 -9.3785 -14.3239 -2.6093 -26.4642 14.1782 -0.6076 -1.8820 6.8543 0.3737 3.6470 0.0000 -0.0000 0.0000 58.8951 -30.7922 -71.5803 11.3763 -18.8628 -1.8958 -0.0000 -0.0000 18.5463 13.0549 33.2233 7.2404 -7.1250 0.0000 -0.0000 -23.4452 62.3738 -10.1989 0.0000 -0.0000 0.0000 -46.8110 27.9506 -61.6184 -29.0749 40.0872 -10.8089 0.0000 0.0000 4.6068 -36.5921 5.9497 -4.4008 7.1250 -0.0000 -0.0000 -7.2323 -22.6013 -3.9278
-0.4483 18.9843 3.3839 -10.9359 -95.6826 8.7324 0.0000 0.0000 0.0000 -24.6412 -3.5705 -1.2274 2.0409 8.9508 25.6415 0.2731 10.2300 10.9870 2.2725 -9.4120 -27.0928 0.0000 0.0000 0.0000 10.4745 9.0480 -12.1162 -5.5320 -13.9590 43.0734 -0.2933 -14.6786 13.3569 -0.9177 -6.1037 17.0857 -4.3330 -0.6241 4.5590 6.4861 -0.9661 -6.7355 9.6775 0.0347 -9.6279 -14.1058 -2.8242 -26.1864 14.3491 -0.9888 -2.0293 6.8312 0.1881 3.6251 -0.0000 0.0000 0.0000 59.3338 -31.0208 -71.2856 11.4571 -18.9855 -1.9220 -0.0000 -0.0000 18.3407 12.9387 32.8970 7.1126 -7.1250 0.0000 -0.0000 -23.2655 62.0496 -9.9379 -0.0000 0.0000 0.0000 -49.1847 28.7912 -64.2409 -27.2013 38.3705 -9.6238 0.0000 0.0000 5.4053 -36.3499 5.8395 -4.2820 7.1250 -0.0000 -0.0000 -7.0700 -22.7583 -3.8128
-0.4492 18.9984 3.3299 -11.1581 -95.6834 9.0106 0.0000 0.0000 0.0000 -24.3766 -3.4490 -1.7579 2.1069 9.0852 26.0622 0.3546 10.1298 11.9135 2.3434 -9.5474 -27.5232 0.0000 0.0000 0.0000 10.9927 9.2692 -11.8336 -5.4327 -13.8551 42.6600 -0.2559 -15.0611 13.2057 -0.8121 -5.7508 16.0631 -4.2822 -0.6003 4.5223 6.1816 -0.9443 -6.9120 9.3071 0.0424 -9.8063 -14.1040 -3.2096 -26.3140 14.5339 -1.4930 -2.0837 6.8420 -0.0463 3.7043 0.0000 -0.0000 0.0000 59.7842 -31.1729 -71.2379 11.4784 -19.0179 -1.9289 -0.0000 -0.0000 18.2372 13.0102 32.6450 7.1047 -7.1250 0.0000 -0.0000 -22.9586 61.8389 -9.6846 0.0000 -0.0000 0.0000 -51.7907 29.5338 -66.9698 -25.4362 36.6465 -8.5489 0.0000 0.0000 5.9080 -36.1709 5.6818 -4.1400 7.1250 -0.0000 -0.0000 -6.9585 -22.9671 -3.7183
-0.4479 19.0102 3.2756 -11.1661 -95.6109 9.0807 0.0000 0.0000 0.0000 -24.0630 -3.5486 -2.2623 2.1825 9.2363 26.5373 0.4343 10.3247 12.8745 2.3034 -9.4714 -27.2813 0.0000 0.0000 0.0000 11.5382 9.3369 -11.5079 -5.3293 -13.7453 42.2267 -0.1530 -15.5622 12.4988 -0.5593 -4.7904 13.3118 -4.2371 -0.6247 4.5141 6.0132 -0.9845 -7.0868 9.1047 0.0241 -9.9891 -15.0125 -3.6184 -26.6471 15.2238 -1.7733 -1.8371 7.2084 -0.1263 3.8943 -0.0000 0.0000 0.0000 59.8412 -31.1348 -70.4213 11.5510 -19.1279 -1.9527 -0.0000 -0.0000 17.6494 13.1406 32.4235 7.1347 -7.1250 0.0000 -0.0000 -22.6204 61.6697 -9.4429 -0.0000 0.0000 0.0000 -54.5668 30.0813 -69.2794 -23.9038 35.0624 -7.6512 0.0000 0.0000 5.7761 -35.9867 4.9923 -3.6160 7.1250 -0.0000 -0.0000 -6.9027 -23.8248 -3.5510
-0.4430 19.0224 3.2188 -11.1384 -95.5787 9.0887 0.0000 0.0000 0.0000 -23.7043 -3.5375 -2.8220 2.2658 9.3991 27.0520 0.5118 10.6123 13.7848 2.1644 -9.2005 -26.4245 0.0000 0.0000 0.0000 12.0942 9.5804 -11.0655 -5.2284 -13.6365 41.8003 0.0298 -16.2424 11.1035 -0.3986 -4.0535 11.2271 -4.2198 -0.4844 4.6297 5.7809 -0.8125 -7.3738 8.8343 0.1224 -10.4152 -16.0933 -4.0189 -26.5551 15.8676 -2.0220 -1.6068 7.5885 -0.2018 4.0209 0.0000 0.0000 0.0000 60.2274 -31.4998 -70.3702 11.5467 -19.1214 -1.9513 -0.0000 -0.0000 17.7699 12.7678 32.2082 6.8868 -7.1250 0.0000 -0.0000 -22.8265 61.3818 -9.3779 0.0000 0.0000 0.0000 -56.8901 30.5124 -70.9981 -22.5099 33.5485 -6.8655 0.0000 0.0000 5.6877 -35.9348 3.9428 -2.8531 7.1250 -0.0000 -0.0000 -6.9797 -25.1115 -3.3818
-0.4385 19.0300 3.1596 -11.0519 -95.6034 9.0699 0.0000 0.0000 0.0000 -23.3029 -3.3306 -3.5236 2.3569 9.5729 27.6044 0.6038 10.6259 14.7086 2.1265 -9.1247 -26.1862 0.0000 0.0000 0.0000 12.6326 10.0665 -10.5641 -5.1251 -13.5233 41.3603 0.2151 -16.8731 9.6064 -0.4081 -4.1011 11.3612 -4.1238 -0.2185 4.7178 5.4200 -0.4747 -7.7532 8.3530 0.2932 -10.9592 -17.1714 -4.6545 -26.0744 16.6966 -2.6453 -1.4481 7.9872 -0.4622 4.1495 0.0000 0.0000 0.0000 60.9760 -32.1468 -70.5603 11.5172 -19.0767 -1.9416 -0.0000 -0.0000 17.7303 12.7023 32.1148 6.8330 -7.1250 0.0000 -0.0000 -22.8140 61.2808 -9.3176 0.0000 0.0000 0.0000 -58.8537 31.1430 -73.0527 -21.1572 32.0113 -6.1330 0.0000 0.0000 6.3581 -35.7006 3.3484 -2.4033 7.1250 -0.0000 -0.0000 -6.8673 -25.8511 -3.2074
-0.4349 19.0321 3.1003 -11.8961 -95.5579 10.0000 0.0000 0.0000 0.0000 -22.9411 -3.0761 -4.2993 2.4550 9.7557 28.1892 0.7392 10.1380 15.8717 2.2309 -9.3313 -26.8373 0.0000 0.0000 0.0000 13.0491 10.5321 -10.0408 -5.0132 -13.3987 40.8798 0.3303 -17.1567 8.5408 -0.4730 -4.4109 12.2355 -4.1437 -0.1255 4.7403 5.0172 -0.3854 -8.0464 7.9149 0.3386 -11.3192 -17.3795 -4.9268 -25.7691 16.9354 -2.9975 -1.4015 8.0624 -0.6265 4.1955 -0.0000 -0.0000 0.0000 61.5362 -32.3648 -69.6369 11.6090 -19.2158 -1.9717 -0.0000 -0.0000 16.6903 13.2297 31.9860 7.0986 -7.1250 0.0000 -0.0000 -22.1420 61.2920 -9.0333 -0.0000 -0.0000 0.0000 -60.9515 31.8080 -75.5311 -19.8972 30.5183 -5.4790 0.0000 0.0000 7.1106 -35.6543 3.4516 -2.4730 7.1250 -0.0000 -0.0000 -6.8220 -25.7276 -3.2058
-0.4304 19.0333 3.0418 -12.3124 -95.4033 10.4714 0.0000 0.0000 0.0000 -22.4462 -2.7718 -5.0857 2.5587 9.9439 28.7952 0.8855 9.7201 17.1128 2.1401 -9.1520 -26.2718 0.0000 0.0000 0.0000 13.4321 10.5755 -9.6105 -4.8909 -13.2599 40.3492 0.3535 -17.0460 8.1546 -0.5028 -4.5455 12.6167 -4.1172 -0.0602 4.7715 4.6382 -0.3270 -8.2457 7.4760 0.3588 -11.5712 -17.6612 -5.2332 -25.6542 17.2529 -3.3539 -1.4263 8.1788 -0.7846 4.2524 0.0000 -0.0000 0.0000 62.2402 -32.5274 -69.4589 11.6568 -19.2880 -1.9875 -0.0000 -0.0000 16.3046 13.1903 31.9094 7.0620 -7.1250 0.0000 -0.0000 -22.1179 61.2123 -8.9810 0.0000 -0.0000 0.0000 -62.9829 32.1037 -77.4659 -18.7371 29.0907 -4.9024 0.0000 0.0000 7.4839 -35.5637 3.5632 -2.5442 7.1250 -0.0000 -0.0000 -6.7427 -25.5966 -3.1888
-0.4245 19.0380 2.9843 -11.6107 -95.2224 9.8844 0.0000 0.0000 0.0000 -21.8039 -2.4888 -5.9283 2.6670 10.1354 29.4163 0.9852 9.8303 17.9920 1.8032 -8.4435 -24.0694 0.0000 0.0000 0.0000 13.8599 10.3682 -9.3350 -4.7550 -13.1024 39.7531 0.3495 -16.8243 7.9818 -0.4007 -4.0639 11.2564 -3.9735 0.1075 4.7769 4.2960 -0.1188 -8.4722 6.9904 0.4420 -11.8621 -18.3396 -5.6705 -25.3322 17.6590 -3.7934 -1.5276 8.3819 -0.9844 4.2833 0.0000 -0.0000 0.0000 63.0866 -32.8698 -70.0455 11.6389 -19.2609 -1.9816 -0.0000 -0.0000 16.4492 13.2725 31.7202 7.0698 -7.1250 0.0000 -0.0000 -21.8691 61.0587 -8.7943 0.0000 -0.0000 0.0000 -64.7287 32.2615 -78.9909 -17.6901 27.7585 -4.4039 0.0000 0.0000 8.1342 -35.2115 3.1969 -2.2538 7.1250 -0.0000 -0.0000 -6.5153 -26.0606 -3.0089
-0.4185 19.0377 2.9282 -11.6421 -95.0205 9.9915 0.0000 0.0000 0.0000 -21.2021 -2.1086 -6.7283 2.7809 10.3316 30.0573 1.0995 9.3799 18.8835 1.5845 -7.9409 -22.5348 0.0000 0.0000 0.0000 14.2728 10.4700 -8.8594 -4.6094 -12.9299 39.1068 0.4051 -16.8491 7.3031 -0.2280 -3.0734 8.4831 -3.7607 0.1720 4.9250 3.8021 -0.0624 -8.7568 6.3238 0.4399 -12.2792 -18.6685 -5.9137 -25.0340 18.0116 -4.0899 -1.4670 8.5253 -1.1164 4.3385 0.0000 0.0000 0.0000 63.8934 -33.1262 -69.9759 11.7028 -19.3574 -2.0027 -0.0000 -0.0000 16.2807 13.7601 31.6271 7.3176 -7.1250 0.0000 -0.0000 -21.2718 61.0913 -8.5579 0.0000 0.0000 0.0000 -66.0616 32.6518 -80.4576 -16.8362 26.6414 -4.0136 0.0000 0.0000 8.8564 -34.8261 2.9930 -2.0804 7.1250 -0.0000 -0.0000 -6.2442 -26.3261 -2.8433
-0.4114 19.0363 2.8707 -12.8859 -94.7917 11.3101 0.0000 0.0000 0.0000 -20.6509 -1.7691 -7.5228 2.8987 10.5293 30.7083 1.2318 8.5712 19.8793 1.4262 -7.5517 -21.3606 0.0000 0.0000 0.0000 14.6533 11.0277 -8.1858 -4.4601 -12.7487 38.4349 0.6088 -17.6020 5.4119 -0.2264 -3.0626 8.4532 -3.7176 0.2285 5.1071 3.2736 -0.0411 -9.0103 5.7206 0.4313 -12.6813 -18.7724 -6.1450 -24.8932 18.2287 -4.4103 -1.3362 8.5801 -1.2622 4.4327 -0.0000 0.0000 0.0000 64.8525 -33.3889 -70.4078 11.7223 -19.3869 -2.0092 -0.0000 -0.0000 16.4457 13.8650 30.6825 7.1786 -7.1250 0.0000 -0.0000 -20.3954 60.2408 -7.7735 -0.0000 0.0000 0.0000 -67.1558 32.9560 -81.6519 -16.1446 25.7163 -3.7085 0.0000 0.0000 9.5293 -34.4288 3.0177 -2.0666 7.1250 -0.0000 -0.0000 -5.9422 -26.3146 -2.7059
-0.4023 19.0315 2.8146 -14.1554 -94.4614 12.7204 0.0000 0.0000 0.0000 -20.0716 -1.7228 -8.2315 3.0151 10.7194 31.3393 1.3660 7.3415 20.8977 1.3944 -7.4707 -21.1176 0.0000 0.0000 0.0000 14.9558 11.1632 -7.7921 -4.3164 -12.5699 37.7791 0.8028 -18.3019 3.4456 -0.3373 -3.7321 10.3241 -3.8752 0.4650 5.1046 2.8384 0.2145 -9.1852 5.2911 0.5516 -12.9151 -19.0501 -6.5968 -24.7658 18.3278 -4.9520 -1.2544 8.5924 -1.5207 4.5514 -0.0000 -0.0000 0.0000 66.2499 -33.9504 -72.6742 11.5781 -19.1689 -1.9615 -0.0000 -0.0000 17.4511 13.7406 27.5600 6.4548 -7.1250 0.0000 -0.0000 -18.3221 57.2745 -5.6363 -0.0000 -0.0000 0.0000 -67.9278 32.8081 -81.8937 -15.6112 24.9907 -3.4801 0.0000 0.0000 10.1666 -33.4748 2.2508 -1.4877 7.1250 -0.0000 -0.0000 -5.2815 -27.2716 -2.2834
-0.3905 19.0180 2.7586 -15.5374 -94.1313 14.2325 0.0000 0.0000 0.0000 -19.4758 -1.4294 -8.9478 3.1239 10.8929 31.9195 1.4963 4.8016 22.0608 1.6057 -7.9913 -22.6876 0.0000 0.0000 0.0000 15.2199 11.1673 -7.4681 -4.1880 -12.4064 37.1853 0.8468 -18.2054 2.4976 -0.3645 -3.8781 10.7339 -3.7956 0.7425 5.1294 2.1041 0.5201 -9.3516 4.3848 0.6511 -13.1450 -18.7212 -7.0037 -24.7045 18.3434 -5.6065 -1.1006 8.4534 -1.8362 4.7075 -0.0000 -0.0000 0.0000 68.1801 -34.5301 -75.0542 11.4897 -19.0350 -1.9326 -0.0000 -0.0000 18.2810 13.4478 28.9891 6.6103 -7.1250 0.0000 -0.0000 -19.5782 58.5617 -6.6554 -0.0000 -0.0000 0.0000 -67.9746 32.6402 -81.8678 -15.1756 24.3901 -3.2981 0.0000 0.0000 10.7979 -32.2209 0.6409 -0.4039 7.1250 -0.0000 -0.0000 -4.4208 -29.2096 -1.7059
-0.3796 19.0095 2.7031 -17.1567 -93.8189 15.9724 0.0000 0.0000 0.0000 -18.8887 -1.0822 -9.6401 3.2162 11.0370 32.4048 1.5490 2.9613 22.7612 1.5696 -7.9052 -22.4266 0.0000 0.0000 0.0000 15.4811 11.2894 -7.0753 -4.0893 -12.2783 36.7238 0.8041 -17.5583 2.0509 -0.3600 -3.8543 10.6670 -3.5323 0.8072 5.1815 1.2231 0.5367 -9.4867 3.2611 0.5790 -13.3108 -17.8386 -7.1063 -24.8546 18.3239 -6.0053 -0.8252 8.2415 -2.0210 4.8675 -0.0000 -0.0000 0.0000 69.8996 -34.6427 -75.8565 11.5379 -19.1081 -1.9484 -0.0000 -0.0000 18.3057 13.4561 28.4035 6.4932 -7.1250 0.0000 -0.0000 -19.1670 58.0123 -6.2535 -0.0000 -0.0000 0.0000 -67.9240 32.7804 -82.6058 -14.7864 23.8478 -3.1391 0.0000 0.0000 11.3344 -31.4090 0.0610 -0.0373 7.1250 -0.0000 -0.0000 -3.8143 -29.8975 -1.4083
